# xmcd
#
# Track frame offsets: 
#        150
#        10882
#        16857
#        21965
#        31625
#        44677
#        49125
#        56132
#        71215
#        76335
#        94172
#        161345
#        206880
#        230417
#
# Disc length: 4100 seconds
#
# Revision: 2
# Processed by: cddbd v1.5.2PL0 Copyright (c) Steve Scherf et al.
# Submitted via: ExactAudioCopy v0.99pb5
#
DISCID=b510020e
DTITLE=Furtwangler - TAHRA FURT 1057
DYEAR=1951
DGENRE=Classical
TTITLE0=Brahms - Variations On A Theme By Haydn Op.56a - Corale - Anda
TTITLE0=nte
TTITLE1=Brahms - Variations On A Theme By Haydn Op.56a - 1. Poco piu a
TTITLE1=nimato
TTITLE2=Brahms - Variations On A Theme By Haydn Op.56a - 2. Piu mosso
TTITLE3=Brahms - Variations On A Theme By Haydn Op.56a - 3. Con moto
TTITLE4=Brahms - Variations On A Theme By Haydn Op.56a - 4. Andante
TTITLE5=Brahms - Variations On A Theme By Haydn Op.56a - 5. Vivace
TTITLE6=Brahms - Variations On A Theme By Haydn Op.56a - 6. Vivace
TTITLE7=Brahms - Variations On A Theme By Haydn Op.56a - 7. Gracioso
TTITLE8=Brahms - Variations On A Theme By Haydn Op.56a - 8. Presto non
TTITLE8=troppo
TTITLE9=Brahms - Variations On A Theme By Haydn Op.56a - Finale - Anda
TTITLE9=nte
TTITLE10=Brahms - Symphony No.1 in C minor Op.68 - 1. Un poco sostenut
TTITLE10=o - Allegro
TTITLE11=Brahms - Symphony No.1 in C minor Op.68 - 2. Andante sostenut
TTITLE11=o
TTITLE12=Brahms - Symphony No.1 in C minor Op.68 - 3. Un poco allegret
TTITLE12=to e grazioso
TTITLE13=Brahms - Symphony No.1 in C minor Op.68 - 4. Adagio - Piu and
TTITLE13=ante - Allegro non troppo, ma con brio - Piu allegro
EXTD=YEAR: 1951
EXTT0=
EXTT1=
EXTT2=
EXTT3=
EXTT4=
EXTT5=
EXTT6=
EXTT7=
EXTT8=
EXTT9=
EXTT10=
EXTT11=
EXTT12=
EXTT13=
PLAYORDER=
